<svg width="375" height="812" viewBox="0 0 375 812" fill="none" xmlns="http://www.w3.org/2000/svg">
<rect width="375" height="812" fill="#F0F2F5"/>
<rect opacity="0.2" x="24.75" y="273.75" width="158.5" height="54.5" rx="4.25" stroke="#969CB3" stroke-width="1.5"/>
<path d="M97.352 296.242V306H96.078V296.242H97.352ZM103.261 298.188C104.195 298.188 104.951 298.473 105.529 299.042C106.108 299.602 106.397 300.414 106.397 301.478V306H105.137V301.66C105.137 300.895 104.946 300.311 104.563 299.91C104.181 299.499 103.658 299.294 102.995 299.294C102.323 299.294 101.787 299.504 101.385 299.924C100.993 300.344 100.797 300.955 100.797 301.758V306H99.5233V298.328H100.797V299.42C101.049 299.028 101.39 298.725 101.819 298.51C102.258 298.295 102.739 298.188 103.261 298.188ZM108.002 302.15C108.002 301.357 108.161 300.666 108.478 300.078C108.796 299.481 109.234 299.019 109.794 298.692C110.364 298.365 111.012 298.202 111.74 298.202C112.683 298.202 113.458 298.431 114.064 298.888C114.68 299.345 115.086 299.98 115.282 300.792H113.91C113.78 300.325 113.523 299.957 113.14 299.686C112.767 299.415 112.3 299.28 111.74 299.28C111.012 299.28 110.424 299.532 109.976 300.036C109.528 300.531 109.304 301.235 109.304 302.15C109.304 303.074 109.528 303.788 109.976 304.292C110.424 304.796 111.012 305.048 111.74 305.048C112.3 305.048 112.767 304.917 113.14 304.656C113.514 304.395 113.77 304.021 113.91 303.536H115.282C115.077 304.32 114.666 304.95 114.05 305.426C113.434 305.893 112.664 306.126 111.74 306.126C111.012 306.126 110.364 305.963 109.794 305.636C109.234 305.309 108.796 304.847 108.478 304.25C108.161 303.653 108.002 302.953 108.002 302.15ZM120.328 306.126C119.61 306.126 118.956 305.963 118.368 305.636C117.79 305.309 117.332 304.847 116.996 304.25C116.67 303.643 116.506 302.943 116.506 302.15C116.506 301.366 116.674 300.675 117.01 300.078C117.356 299.471 117.822 299.009 118.41 298.692C118.998 298.365 119.656 298.202 120.384 298.202C121.112 298.202 121.77 298.365 122.358 298.692C122.946 299.009 123.408 299.467 123.744 300.064C124.09 300.661 124.262 301.357 124.262 302.15C124.262 302.943 124.085 303.643 123.73 304.25C123.385 304.847 122.914 305.309 122.316 305.636C121.719 305.963 121.056 306.126 120.328 306.126ZM120.328 305.006C120.786 305.006 121.215 304.899 121.616 304.684C122.018 304.469 122.34 304.147 122.582 303.718C122.834 303.289 122.96 302.766 122.96 302.15C122.96 301.534 122.839 301.011 122.596 300.582C122.354 300.153 122.036 299.835 121.644 299.63C121.252 299.415 120.828 299.308 120.37 299.308C119.904 299.308 119.474 299.415 119.082 299.63C118.7 299.835 118.392 300.153 118.158 300.582C117.925 301.011 117.808 301.534 117.808 302.15C117.808 302.775 117.92 303.303 118.144 303.732C118.378 304.161 118.686 304.483 119.068 304.698C119.451 304.903 119.871 305.006 120.328 305.006ZM135.163 298.188C135.761 298.188 136.293 298.314 136.759 298.566C137.226 298.809 137.595 299.177 137.865 299.672C138.136 300.167 138.271 300.769 138.271 301.478V306H137.011V301.66C137.011 300.895 136.82 300.311 136.437 299.91C136.064 299.499 135.555 299.294 134.911 299.294C134.249 299.294 133.721 299.509 133.329 299.938C132.937 300.358 132.741 300.969 132.741 301.772V306H131.481V301.66C131.481 300.895 131.29 300.311 130.907 299.91C130.534 299.499 130.025 299.294 129.381 299.294C128.719 299.294 128.191 299.509 127.799 299.938C127.407 300.358 127.211 300.969 127.211 301.772V306H125.937V298.328H127.211V299.434C127.463 299.033 127.799 298.725 128.219 298.51C128.649 298.295 129.12 298.188 129.633 298.188C130.277 298.188 130.847 298.333 131.341 298.622C131.836 298.911 132.205 299.336 132.447 299.896C132.662 299.355 133.017 298.935 133.511 298.636C134.006 298.337 134.557 298.188 135.163 298.188ZM147.361 301.87C147.361 302.113 147.347 302.369 147.319 302.64H141.187C141.234 303.396 141.491 303.989 141.957 304.418C142.433 304.838 143.007 305.048 143.679 305.048C144.23 305.048 144.687 304.922 145.051 304.67C145.425 304.409 145.686 304.063 145.835 303.634H147.207C147.002 304.371 146.591 304.973 145.975 305.44C145.359 305.897 144.594 306.126 143.679 306.126C142.951 306.126 142.298 305.963 141.719 305.636C141.15 305.309 140.702 304.847 140.375 304.25C140.049 303.643 139.885 302.943 139.885 302.15C139.885 301.357 140.044 300.661 140.361 300.064C140.679 299.467 141.122 299.009 141.691 298.692C142.27 298.365 142.933 298.202 143.679 298.202C144.407 298.202 145.051 298.361 145.611 298.678C146.171 298.995 146.601 299.434 146.899 299.994C147.207 300.545 147.361 301.17 147.361 301.87ZM146.045 301.604C146.045 301.119 145.938 300.703 145.723 300.358C145.509 300.003 145.215 299.737 144.841 299.56C144.477 299.373 144.071 299.28 143.623 299.28C142.979 299.28 142.429 299.485 141.971 299.896C141.523 300.307 141.267 300.876 141.201 301.604H146.045Z" fill="#363F5F"/>
<path d="M71 291C65.4772 291 61 295.477 61 301C61 306.523 65.4772 311 71 311C76.5228 311 81 306.523 81 301C81 295.477 76.5228 291 71 291Z" stroke="#12A454" stroke-width="1.5" stroke-linecap="round" stroke-linejoin="round"/>
<path d="M75 301L71 297L67 301" stroke="#12A454" stroke-width="1.5" stroke-linecap="round" stroke-linejoin="round"/>
<path d="M71 305L71 297" stroke="#12A454" stroke-width="1.5" stroke-linecap="round" stroke-linejoin="round"/>
<path opacity="0.2" d="M192.75 278C192.75 275.653 194.653 273.75 197 273.75H346C348.347 273.75 350.25 275.653 350.25 278V324C350.25 326.347 348.347 328.25 346 328.25H197C194.653 328.25 192.75 326.347 192.75 324V278Z" stroke="#969CB3" stroke-width="1.5"/>
<path d="M262.502 306.098C261.597 306.098 260.771 305.888 260.024 305.468C259.277 305.039 258.685 304.446 258.246 303.69C257.817 302.925 257.602 302.066 257.602 301.114C257.602 300.162 257.817 299.308 258.246 298.552C258.685 297.787 259.277 297.194 260.024 296.774C260.771 296.345 261.597 296.13 262.502 296.13C263.417 296.13 264.247 296.345 264.994 296.774C265.741 297.194 266.329 297.782 266.758 298.538C267.187 299.294 267.402 300.153 267.402 301.114C267.402 302.075 267.187 302.934 266.758 303.69C266.329 304.446 265.741 305.039 264.994 305.468C264.247 305.888 263.417 306.098 262.502 306.098ZM262.502 304.992C263.183 304.992 263.795 304.833 264.336 304.516C264.887 304.199 265.316 303.746 265.624 303.158C265.941 302.57 266.1 301.889 266.1 301.114C266.1 300.33 265.941 299.649 265.624 299.07C265.316 298.482 264.891 298.029 264.35 297.712C263.809 297.395 263.193 297.236 262.502 297.236C261.811 297.236 261.195 297.395 260.654 297.712C260.113 298.029 259.683 298.482 259.366 299.07C259.058 299.649 258.904 300.33 258.904 301.114C258.904 301.889 259.058 302.57 259.366 303.158C259.683 303.746 260.113 304.199 260.654 304.516C261.205 304.833 261.821 304.992 262.502 304.992ZM275.888 298.328V306H274.614V304.866C274.371 305.258 274.031 305.566 273.592 305.79C273.163 306.005 272.687 306.112 272.164 306.112C271.567 306.112 271.03 305.991 270.554 305.748C270.078 305.496 269.7 305.123 269.42 304.628C269.149 304.133 269.014 303.531 269.014 302.822V298.328H270.274V302.654C270.274 303.41 270.465 303.993 270.848 304.404C271.231 304.805 271.753 305.006 272.416 305.006C273.097 305.006 273.634 304.796 274.026 304.376C274.418 303.956 274.614 303.345 274.614 302.542V298.328H275.888ZM279.593 299.378V303.9C279.593 304.273 279.672 304.539 279.831 304.698C279.99 304.847 280.265 304.922 280.657 304.922H281.595V306H280.447C279.738 306 279.206 305.837 278.851 305.51C278.496 305.183 278.319 304.647 278.319 303.9V299.378H277.325V298.328H278.319V296.396H279.593V298.328H281.595V299.378H279.593ZM282.663 302.15C282.663 301.357 282.821 300.666 283.139 300.078C283.456 299.481 283.895 299.019 284.455 298.692C285.024 298.365 285.673 298.202 286.401 298.202C287.343 298.202 288.118 298.431 288.725 298.888C289.341 299.345 289.747 299.98 289.943 300.792H288.571C288.44 300.325 288.183 299.957 287.801 299.686C287.427 299.415 286.961 299.28 286.401 299.28C285.673 299.28 285.085 299.532 284.637 300.036C284.189 300.531 283.965 301.235 283.965 302.15C283.965 303.074 284.189 303.788 284.637 304.292C285.085 304.796 285.673 305.048 286.401 305.048C286.961 305.048 287.427 304.917 287.801 304.656C288.174 304.395 288.431 304.021 288.571 303.536H289.943C289.737 304.32 289.327 304.95 288.711 305.426C288.095 305.893 287.325 306.126 286.401 306.126C285.673 306.126 285.024 305.963 284.455 305.636C283.895 305.309 283.456 304.847 283.139 304.25C282.821 303.653 282.663 302.953 282.663 302.15ZM294.988 306.126C294.27 306.126 293.616 305.963 293.028 305.636C292.45 305.309 291.992 304.847 291.656 304.25C291.33 303.643 291.166 302.943 291.166 302.15C291.166 301.366 291.334 300.675 291.67 300.078C292.016 299.471 292.482 299.009 293.07 298.692C293.658 298.365 294.316 298.202 295.044 298.202C295.772 298.202 296.43 298.365 297.018 298.692C297.606 299.009 298.068 299.467 298.404 300.064C298.75 300.661 298.922 301.357 298.922 302.15C298.922 302.943 298.745 303.643 298.39 304.25C298.045 304.847 297.574 305.309 296.976 305.636C296.379 305.963 295.716 306.126 294.988 306.126ZM294.988 305.006C295.446 305.006 295.875 304.899 296.276 304.684C296.678 304.469 297 304.147 297.242 303.718C297.494 303.289 297.62 302.766 297.62 302.15C297.62 301.534 297.499 301.011 297.256 300.582C297.014 300.153 296.696 299.835 296.304 299.63C295.912 299.415 295.488 299.308 295.03 299.308C294.564 299.308 294.134 299.415 293.742 299.63C293.36 299.835 293.052 300.153 292.818 300.582C292.585 301.011 292.468 301.534 292.468 302.15C292.468 302.775 292.58 303.303 292.804 303.732C293.038 304.161 293.346 304.483 293.728 304.698C294.111 304.903 294.531 305.006 294.988 305.006ZM309.824 298.188C310.421 298.188 310.953 298.314 311.42 298.566C311.886 298.809 312.255 299.177 312.526 299.672C312.796 300.167 312.932 300.769 312.932 301.478V306H311.672V301.66C311.672 300.895 311.48 300.311 311.098 299.91C310.724 299.499 310.216 299.294 309.572 299.294C308.909 299.294 308.382 299.509 307.99 299.938C307.598 300.358 307.402 300.969 307.402 301.772V306H306.142V301.66C306.142 300.895 305.95 300.311 305.568 299.91C305.194 299.499 304.686 299.294 304.042 299.294C303.379 299.294 302.852 299.509 302.46 299.938C302.068 300.358 301.872 300.969 301.872 301.772V306H300.598V298.328H301.872V299.434C302.124 299.033 302.46 298.725 302.88 298.51C303.309 298.295 303.78 298.188 304.294 298.188C304.938 298.188 305.507 298.333 306.002 298.622C306.496 298.911 306.865 299.336 307.108 299.896C307.322 299.355 307.677 298.935 308.172 298.636C308.666 298.337 309.217 298.188 309.824 298.188ZM322.021 301.87C322.021 302.113 322.007 302.369 321.979 302.64H315.847C315.894 303.396 316.151 303.989 316.617 304.418C317.093 304.838 317.667 305.048 318.339 305.048C318.89 305.048 319.347 304.922 319.711 304.67C320.085 304.409 320.346 304.063 320.495 303.634H321.867C321.662 304.371 321.251 304.973 320.635 305.44C320.019 305.897 319.254 306.126 318.339 306.126C317.611 306.126 316.958 305.963 316.379 305.636C315.81 305.309 315.362 304.847 315.035 304.25C314.709 303.643 314.545 302.943 314.545 302.15C314.545 301.357 314.704 300.661 315.021 300.064C315.339 299.467 315.782 299.009 316.351 298.692C316.93 298.365 317.593 298.202 318.339 298.202C319.067 298.202 319.711 298.361 320.271 298.678C320.831 298.995 321.261 299.434 321.559 299.994C321.867 300.545 322.021 301.17 322.021 301.87ZM320.705 301.604C320.705 301.119 320.598 300.703 320.383 300.358C320.169 300.003 319.875 299.737 319.501 299.56C319.137 299.373 318.731 299.28 318.283 299.28C317.639 299.28 317.089 299.485 316.631 299.896C316.183 300.307 315.927 300.876 315.861 301.604H320.705Z" fill="#363F5F"/>
<path d="M233 311C238.523 311 243 306.523 243 301C243 295.477 238.523 291 233 291C227.477 291 223 295.477 223 301C223 306.523 227.477 311 233 311Z" stroke="#E83F5B" stroke-width="1.5" stroke-linecap="round" stroke-linejoin="round"/>
<path d="M229 301L233 305L237 301" stroke="#E83F5B" stroke-width="1.5" stroke-linecap="round" stroke-linejoin="round"/>
<path d="M233 297L233 305" stroke="#E83F5B" stroke-width="1.5" stroke-linecap="round" stroke-linejoin="round"/>
<rect x="24" y="137" width="327" height="56" rx="5" fill="white"/>
<path d="M47.476 160.228V167.984L42.352 160.228H41.078V170H42.352V162.23L47.476 170H48.75V160.228H47.476ZM58.2018 166.15C58.2018 163.728 56.5078 162.202 54.3238 162.202C52.1538 162.202 50.4458 163.728 50.4458 166.15C50.4458 168.586 52.0978 170.126 54.2678 170.126C56.4518 170.126 58.2018 168.586 58.2018 166.15ZM51.7478 166.15C51.7478 164.218 52.9658 163.308 54.3098 163.308C55.6258 163.308 56.8998 164.218 56.8998 166.15C56.8998 168.096 55.5978 169.006 54.2678 169.006C52.9378 169.006 51.7478 168.096 51.7478 166.15ZM70.9508 170H72.2108V165.478C72.2108 163.28 70.8528 162.188 69.1028 162.188C67.9268 162.188 66.8348 162.79 66.3868 163.896C65.8828 162.748 64.8328 162.188 63.5728 162.188C62.5648 162.188 61.6548 162.622 61.1508 163.434V162.328H59.8768V170H61.1508V165.772C61.1508 164.12 62.0328 163.294 63.3208 163.294C64.5808 163.294 65.4208 164.092 65.4208 165.66V170H66.6808V165.772C66.6808 164.12 67.5628 163.294 68.8508 163.294C70.1108 163.294 70.9508 164.092 70.9508 165.66V170ZM77.5627 163.28C78.8787 163.28 79.9987 164.106 79.9847 165.604H75.1407C75.2807 164.106 76.3167 163.28 77.5627 163.28ZM81.1467 167.634H79.7747C79.4947 168.46 78.7667 169.048 77.6187 169.048C76.3167 169.048 75.2247 168.194 75.1267 166.64H81.2587C81.2867 166.374 81.3007 166.15 81.3007 165.87C81.3007 163.77 79.8447 162.202 77.6187 162.202C75.3787 162.202 73.8247 163.728 73.8247 166.15C73.8247 168.586 75.4347 170.126 77.6187 170.126C79.5227 170.126 80.7547 169.034 81.1467 167.634Z" fill="#969CB3"/>
<rect x="24" y="201" width="327" height="56" rx="5" fill="white"/>
<path d="M42.352 228.876V225.292H44.228C45.684 225.292 46.3 225.964 46.3 227.098C46.3 228.19 45.684 228.876 44.228 228.876H42.352ZM47.602 227.098C47.602 225.502 46.524 224.242 44.228 224.242H41.078V234H42.352V229.926H44.228C46.65 229.926 47.602 228.582 47.602 227.098ZM50.4594 229.828C50.4594 228.05 51.3834 227.504 52.6014 227.504H52.9374V226.188C51.7194 226.188 50.8934 226.72 50.4594 227.574V226.328H49.1854V234H50.4594V229.828ZM57.6701 227.28C58.9861 227.28 60.1061 228.106 60.0921 229.604H55.2481C55.3881 228.106 56.4241 227.28 57.6701 227.28ZM61.2541 231.634H59.8821C59.6021 232.46 58.8741 233.048 57.7261 233.048C56.4241 233.048 55.3321 232.194 55.2341 230.64H61.3661C61.3941 230.374 61.4081 230.15 61.4081 229.87C61.4081 227.77 59.9521 226.202 57.7261 226.202C55.4861 226.202 53.9321 227.728 53.9321 230.15C53.9321 232.586 55.5421 234.126 57.7261 234.126C59.6301 234.126 60.8621 233.034 61.2541 231.634ZM62.6137 230.15C62.6137 232.404 63.9577 233.902 65.8897 234.098V235.596H66.5897C67.1917 235.596 67.4857 235.764 67.4857 236.198C67.4857 236.646 67.1917 236.814 66.5897 236.814H65.2317V237.64H66.8417C67.8357 237.64 68.5497 237.08 68.5497 236.198C68.5497 235.274 67.8217 234.798 66.7437 234.812V234.112C68.4237 233.972 69.5297 232.95 69.8937 231.536H68.5217C68.2417 232.502 67.4857 233.048 66.3517 233.048C64.9517 233.048 63.9157 232.054 63.9157 230.15C63.9157 228.274 64.9517 227.28 66.3517 227.28C67.4857 227.28 68.2557 227.868 68.5217 228.792H69.8937C69.5017 227.182 68.2557 226.202 66.3517 226.202C64.1677 226.202 62.6137 227.742 62.6137 230.15ZM78.8736 230.15C78.8736 227.728 77.1796 226.202 74.9956 226.202C72.8256 226.202 71.1176 227.728 71.1176 230.15C71.1176 232.586 72.7696 234.126 74.9396 234.126C77.1236 234.126 78.8736 232.586 78.8736 230.15ZM72.4196 230.15C72.4196 228.218 73.6376 227.308 74.9816 227.308C76.2976 227.308 77.5716 228.218 77.5716 230.15C77.5716 232.096 76.2696 233.006 74.9396 233.006C73.6096 233.006 72.4196 232.096 72.4196 230.15Z" fill="#969CB3"/>
<rect x="24" y="345" width="327" height="56" rx="5" fill="white"/>
<path d="M40.602 373.114C40.602 376.04 42.744 378.084 45.474 378.084C47.588 378.084 49.268 377.034 49.996 375.158H48.47C47.938 376.32 46.902 376.978 45.474 376.978C43.43 376.978 41.904 375.494 41.904 373.114C41.904 370.72 43.43 369.236 45.474 369.236C46.902 369.236 47.938 369.894 48.47 371.07H49.996C49.268 369.18 47.588 368.116 45.474 368.116C42.744 368.116 40.602 370.188 40.602 373.114ZM51.4165 374.136C51.4165 376.516 52.9985 378.126 55.0425 378.126C56.4565 378.126 57.4505 377.398 57.9125 376.572V378H59.2005V370.328H57.9125V371.728C57.4645 370.93 56.4845 370.202 55.0565 370.202C52.9985 370.202 51.4165 371.742 51.4165 374.136ZM57.9125 374.15C57.9125 375.956 56.7085 377.006 55.3085 377.006C53.9085 377.006 52.7185 375.942 52.7185 374.136C52.7185 372.33 53.9085 371.308 55.3085 371.308C56.7085 371.308 57.9125 372.372 57.9125 374.15ZM61.6334 375.9C61.6334 377.44 62.4034 378 63.7614 378H64.9094V376.922H63.9714C63.1874 376.922 62.9074 376.656 62.9074 375.9V371.378H64.9094V370.328H62.9074V368.396H61.6334V370.328H60.6394V371.378H61.6334V375.9ZM69.715 371.28C71.031 371.28 72.151 372.106 72.137 373.604H67.293C67.433 372.106 68.469 371.28 69.715 371.28ZM73.299 375.634H71.927C71.647 376.46 70.919 377.048 69.771 377.048C68.469 377.048 67.377 376.194 67.279 374.64H73.411C73.439 374.374 73.453 374.15 73.453 373.87C73.453 371.77 71.997 370.202 69.771 370.202C67.531 370.202 65.977 371.728 65.977 374.15C65.977 376.586 67.587 378.126 69.771 378.126C71.675 378.126 72.907 377.034 73.299 375.634ZM74.6586 374.136C74.6586 376.516 76.2406 378.126 78.2986 378.126C79.6986 378.126 80.6926 377.384 81.1546 376.558V378.168C81.1546 379.806 80.1326 380.674 78.7746 380.674C77.5146 380.674 76.6046 380.044 76.3246 379.12H75.0646C75.3166 380.758 76.7586 381.78 78.7746 381.78C81.0286 381.78 82.4426 380.282 82.4426 378.168V370.328H81.1546V371.728C80.7066 370.902 79.6986 370.202 78.2986 370.202C76.2406 370.202 74.6586 371.742 74.6586 374.136ZM81.1546 374.15C81.1546 375.956 79.9506 377.006 78.5506 377.006C77.1506 377.006 75.9606 375.942 75.9606 374.136C75.9606 372.33 77.1506 371.308 78.5506 371.308C79.9506 371.308 81.1546 372.372 81.1546 374.15ZM91.8756 374.15C91.8756 371.728 90.1816 370.202 87.9976 370.202C85.8276 370.202 84.1196 371.728 84.1196 374.15C84.1196 376.586 85.7716 378.126 87.9416 378.126C90.1256 378.126 91.8756 376.586 91.8756 374.15ZM85.4216 374.15C85.4216 372.218 86.6396 371.308 87.9836 371.308C89.2996 371.308 90.5736 372.218 90.5736 374.15C90.5736 376.096 89.2716 377.006 87.9416 377.006C86.6116 377.006 85.4216 376.096 85.4216 374.15ZM94.8247 373.828C94.8247 372.05 95.7487 371.504 96.9667 371.504H97.3027V370.188C96.0847 370.188 95.2587 370.72 94.8247 371.574V370.328H93.5507V378H94.8247V373.828ZM98.7733 378H100.047V370.328H98.7733V378ZM99.4313 369.082C99.8933 369.082 100.271 368.704 100.271 368.214C100.271 367.724 99.8933 367.346 99.4313 367.346C98.9413 367.346 98.5633 367.724 98.5633 368.214C98.5633 368.704 98.9413 369.082 99.4313 369.082ZM101.743 374.136C101.743 376.516 103.325 378.126 105.369 378.126C106.783 378.126 107.777 377.398 108.239 376.572V378H109.527V370.328H108.239V371.728C107.791 370.93 106.811 370.202 105.383 370.202C103.325 370.202 101.743 371.742 101.743 374.136ZM108.239 374.15C108.239 375.956 107.035 377.006 105.635 377.006C104.235 377.006 103.045 375.942 103.045 374.136C103.045 372.33 104.235 371.308 105.635 371.308C107.035 371.308 108.239 372.372 108.239 374.15Z" fill="#969CB3"/>
<path d="M338 370.5L333 375.5L328 370.5" stroke="#969CB3" stroke-width="1.5" stroke-linecap="round" stroke-linejoin="round"/>
<rect x="24" y="660" width="327" height="56" rx="5" fill="#FF872C"/>
<path d="M169.12 683.358V686.214H172.48V687.516H169.12V690.498H172.9V691.8H167.524V682.056H172.9V683.358H169.12ZM178.757 683.96C179.364 683.96 179.905 684.086 180.381 684.338C180.867 684.59 181.245 684.963 181.515 685.458C181.786 685.953 181.921 686.55 181.921 687.25V691.8H180.339V687.488C180.339 686.797 180.167 686.27 179.821 685.906C179.476 685.533 179.005 685.346 178.407 685.346C177.81 685.346 177.334 685.533 176.979 685.906C176.634 686.27 176.461 686.797 176.461 687.488V691.8H174.865V684.086H176.461V684.968C176.723 684.651 177.054 684.403 177.455 684.226C177.866 684.049 178.3 683.96 178.757 683.96ZM186.939 690.372L189.123 684.086H190.817L187.877 691.8H185.973L183.047 684.086H184.755L186.939 690.372ZM192.836 683.064C192.546 683.064 192.304 682.966 192.108 682.77C191.912 682.574 191.814 682.331 191.814 682.042C191.814 681.753 191.912 681.51 192.108 681.314C192.304 681.118 192.546 681.02 192.836 681.02C193.116 681.02 193.354 681.118 193.55 681.314C193.746 681.51 193.844 681.753 193.844 682.042C193.844 682.331 193.746 682.574 193.55 682.77C193.354 682.966 193.116 683.064 192.836 683.064ZM193.62 684.086V691.8H192.024V684.086H193.62ZM195.183 687.908C195.183 687.133 195.342 686.447 195.659 685.85C195.986 685.253 196.424 684.791 196.975 684.464C197.535 684.128 198.151 683.96 198.823 683.96C199.43 683.96 199.957 684.081 200.405 684.324C200.862 684.557 201.226 684.851 201.497 685.206V684.086H203.107V691.8H201.497V690.652C201.226 691.016 200.858 691.319 200.391 691.562C199.924 691.805 199.392 691.926 198.795 691.926C198.132 691.926 197.526 691.758 196.975 691.422C196.424 691.077 195.986 690.601 195.659 689.994C195.342 689.378 195.183 688.683 195.183 687.908ZM201.497 687.936C201.497 687.404 201.385 686.942 201.161 686.55C200.946 686.158 200.662 685.859 200.307 685.654C199.952 685.449 199.57 685.346 199.159 685.346C198.748 685.346 198.366 685.449 198.011 685.654C197.656 685.85 197.367 686.144 197.143 686.536C196.928 686.919 196.821 687.376 196.821 687.908C196.821 688.44 196.928 688.907 197.143 689.308C197.367 689.709 197.656 690.017 198.011 690.232C198.375 690.437 198.758 690.54 199.159 690.54C199.57 690.54 199.952 690.437 200.307 690.232C200.662 690.027 200.946 689.728 201.161 689.336C201.385 688.935 201.497 688.468 201.497 687.936ZM206.799 685.206C207.033 684.814 207.341 684.511 207.723 684.296C208.115 684.072 208.577 683.96 209.109 683.96V685.612H208.703C208.078 685.612 207.602 685.771 207.275 686.088C206.958 686.405 206.799 686.956 206.799 687.74V691.8H205.203V684.086H206.799V685.206Z" fill="white"/>
<rect width="375" height="113" fill="#5636D3"/>
<rect x="120" y="799" width="135" height="5" rx="2.5" fill="#E5E5E5"/>
<path d="M78 0H297C294.894 0.602689 293.418 2.49525 293.345 4.68446L293.317 5.5618C293.317 19.0587 282.375 30 268.878 30H106.122C92.6249 30 81.6835 19.0587 81.6835 5.5618L81.6545 4.68447C81.5823 2.49525 80.1059 0.602689 78 0Z" fill="#E5E5E5"/>
<path opacity="0.35" d="M336.5 22C336.5 20.8034 337.47 19.8334 338.667 19.8334H355.333C356.53 19.8334 357.5 20.8034 357.5 22V28C357.5 29.1967 356.53 30.1667 355.333 30.1667H338.667C337.47 30.1667 336.5 29.1967 336.5 28V22Z" fill="white" stroke="#E5E5E5"/>
<path opacity="0.4" d="M359 23V27C359.805 26.6613 360.328 25.8732 360.328 25C360.328 24.1269 359.805 23.3388 359 23Z" fill="white"/>
<path d="M338 22.6667C338 21.9303 338.597 21.3334 339.333 21.3334H354.667C355.403 21.3334 356 21.9303 356 22.6667V27.3334C356 28.0698 355.403 28.6667 354.667 28.6667H339.333C338.597 28.6667 338 28.0698 338 27.3334V22.6667Z" fill="white"/>
<path fill-rule="evenodd" clip-rule="evenodd" d="M323.33 21.608C325.546 21.6081 327.677 22.4596 329.283 23.9863C329.404 24.1042 329.598 24.1027 329.717 23.983L330.873 22.8163C330.933 22.7556 330.967 22.6734 330.966 22.5878C330.966 22.5022 330.931 22.4204 330.87 22.3603C326.655 18.3208 320.005 18.3208 315.79 22.3603C315.729 22.4203 315.694 22.5021 315.694 22.5877C315.693 22.6733 315.727 22.7556 315.787 22.8163L316.943 23.983C317.062 24.1029 317.256 24.1044 317.377 23.9863C318.983 22.4595 321.114 21.608 323.33 21.608ZM323.33 25.4037C324.548 25.4036 325.722 25.8561 326.624 26.6733C326.746 26.7893 326.939 26.7868 327.058 26.6677L328.212 25.501C328.273 25.4398 328.307 25.3568 328.306 25.2705C328.305 25.1843 328.27 25.102 328.208 25.042C325.459 22.4856 321.204 22.4856 318.455 25.042C318.393 25.102 318.358 25.1843 318.357 25.2706C318.356 25.3569 318.39 25.4399 318.451 25.501L319.605 26.6677C319.724 26.7868 319.917 26.7893 320.039 26.6733C320.941 25.8567 322.114 25.4042 323.33 25.4037ZM325.643 27.9575C325.645 28.044 325.611 28.1274 325.549 28.188L323.552 30.2037C323.493 30.2629 323.414 30.2963 323.33 30.2963C323.247 30.2963 323.167 30.2629 323.109 30.2037L321.111 28.188C321.049 28.1274 321.015 28.0439 321.017 27.9574C321.019 27.8709 321.056 27.789 321.121 27.731C322.396 26.6521 324.264 26.6521 325.54 27.731C325.604 27.7891 325.642 27.871 325.643 27.9575Z" fill="white"/>
<path fill-rule="evenodd" clip-rule="evenodd" d="M309.667 19.6666H308.667C308.114 19.6666 307.667 20.1143 307.667 20.6666V29.3333C307.667 29.8856 308.114 30.3333 308.667 30.3333H309.667C310.219 30.3333 310.667 29.8856 310.667 29.3333V20.6666C310.667 20.1143 310.219 19.6666 309.667 19.6666ZM304 22H305C305.552 22 306 22.4477 306 23V29.3333C306 29.8856 305.552 30.3333 305 30.3333H304C303.448 30.3333 303 29.8856 303 29.3333V23C303 22.4477 303.448 22 304 22ZM300.333 24.3333H299.333C298.781 24.3333 298.333 24.781 298.333 25.3333V29.3333C298.333 29.8856 298.781 30.3333 299.333 30.3333H300.333C300.886 30.3333 301.333 29.8856 301.333 29.3333V25.3333C301.333 24.781 300.886 24.3333 300.333 24.3333ZM295.667 26.3333H294.667C294.114 26.3333 293.667 26.781 293.667 27.3333V29.3333C293.667 29.8856 294.114 30.3333 294.667 30.3333H295.667C296.219 30.3333 296.667 29.8856 296.667 29.3333V27.3333C296.667 26.781 296.219 26.3333 295.667 26.3333Z" fill="white"/>
<path d="M37.3207 30.2563C40.0087 30.2563 41.6053 28.1543 41.6053 24.5947C41.6053 23.2544 41.349 22.1265 40.8583 21.2549C40.1478 19.8999 38.9247 19.1675 37.3793 19.1675C35.0795 19.1675 33.4535 20.7129 33.4535 22.8809C33.4535 24.917 34.9183 26.3965 36.9325 26.3965C38.1703 26.3965 39.1737 25.8179 39.6718 24.8145H39.6937C39.6937 24.8145 39.723 24.8145 39.7303 24.8145C39.745 24.8145 39.7963 24.8145 39.7963 24.8145C39.7963 27.2314 38.8807 28.6743 37.3353 28.6743C36.4271 28.6743 35.724 28.1763 35.4823 27.3779H33.6C33.9149 29.1138 35.3871 30.2563 37.3207 30.2563ZM37.3866 24.895C36.1708 24.895 35.3065 24.0308 35.3065 22.8223C35.3065 21.6431 36.2147 20.7422 37.3939 20.7422C38.5731 20.7422 39.4813 21.6577 39.4813 22.8516C39.4813 24.0308 38.5951 24.895 37.3866 24.895Z" fill="white"/>
<path d="M44.6965 30.1538C45.3923 30.1538 45.8683 29.6558 45.8683 28.9966C45.8683 28.3301 45.3923 27.8394 44.6965 27.8394C44.008 27.8394 43.5246 28.3301 43.5246 28.9966C43.5246 29.6558 44.008 30.1538 44.6965 30.1538ZM44.6965 24.6606C45.3923 24.6606 45.8683 24.1699 45.8683 23.5107C45.8683 22.8442 45.3923 22.3535 44.6965 22.3535C44.008 22.3535 43.5246 22.8442 43.5246 23.5107C43.5246 24.1699 44.008 24.6606 44.6965 24.6606Z" fill="white"/>
<path d="M52.7241 30H54.5332V28.0298H55.9614V26.4331H54.5332V19.4312H51.8672C49.9995 22.2437 48.5127 24.5947 47.5605 26.3452V28.0298H52.7241V30ZM49.311 26.3672C50.5415 24.1992 51.6401 22.4634 52.6509 20.9692H52.7534V26.4771H49.311V26.3672Z" fill="white"/>
<path d="M59.99 30H61.8797V19.4312H59.9973L57.2361 21.3647V23.1812L59.8655 21.3354H59.99V30Z" fill="white"/>
<rect y="740" width="375" height="72" fill="white"/>
<rect y="740" width="375" height="1" fill="#F0F2F5"/>
<g opacity="0.6">
<path d="M175.518 769.114C175.518 768.162 175.737 767.308 176.176 766.552C176.624 765.796 177.226 765.208 177.982 764.788C178.747 764.359 179.583 764.144 180.488 764.144C181.524 764.144 182.443 764.401 183.246 764.914C184.058 765.418 184.646 766.137 185.01 767.07H183.092C182.84 766.557 182.49 766.174 182.042 765.922C181.594 765.67 181.076 765.544 180.488 765.544C179.844 765.544 179.27 765.689 178.766 765.978C178.262 766.267 177.865 766.683 177.576 767.224C177.296 767.765 177.156 768.395 177.156 769.114C177.156 769.833 177.296 770.463 177.576 771.004C177.865 771.545 178.262 771.965 178.766 772.264C179.27 772.553 179.844 772.698 180.488 772.698C181.076 772.698 181.594 772.572 182.042 772.32C182.49 772.068 182.84 771.685 183.092 771.172H185.01C184.646 772.105 184.058 772.824 183.246 773.328C182.443 773.832 181.524 774.084 180.488 774.084C179.573 774.084 178.738 773.874 177.982 773.454C177.226 773.025 176.624 772.432 176.176 771.676C175.737 770.92 175.518 770.066 175.518 769.114ZM186.346 770.108C186.346 769.333 186.505 768.647 186.822 768.05C187.149 767.453 187.587 766.991 188.138 766.664C188.698 766.328 189.314 766.16 189.986 766.16C190.593 766.16 191.12 766.281 191.568 766.524C192.025 766.757 192.389 767.051 192.66 767.406V766.286H194.27V774H192.66V772.852C192.389 773.216 192.021 773.519 191.554 773.762C191.087 774.005 190.555 774.126 189.958 774.126C189.295 774.126 188.689 773.958 188.138 773.622C187.587 773.277 187.149 772.801 186.822 772.194C186.505 771.578 186.346 770.883 186.346 770.108ZM192.66 770.136C192.66 769.604 192.548 769.142 192.324 768.75C192.109 768.358 191.825 768.059 191.47 767.854C191.115 767.649 190.733 767.546 190.322 767.546C189.911 767.546 189.529 767.649 189.174 767.854C188.819 768.05 188.53 768.344 188.306 768.736C188.091 769.119 187.984 769.576 187.984 770.108C187.984 770.64 188.091 771.107 188.306 771.508C188.53 771.909 188.819 772.217 189.174 772.432C189.538 772.637 189.921 772.74 190.322 772.74C190.733 772.74 191.115 772.637 191.47 772.432C191.825 772.227 192.109 771.928 192.324 771.536C192.548 771.135 192.66 770.668 192.66 770.136ZM195.834 770.108C195.834 769.333 195.993 768.647 196.31 768.05C196.637 767.453 197.076 766.991 197.626 766.664C198.186 766.328 198.807 766.16 199.488 766.16C199.992 766.16 200.487 766.272 200.972 766.496C201.467 766.711 201.859 767 202.148 767.364V763.64H203.758V774H202.148V772.838C201.887 773.211 201.523 773.519 201.056 773.762C200.599 774.005 200.072 774.126 199.474 774.126C198.802 774.126 198.186 773.958 197.626 773.622C197.076 773.277 196.637 772.801 196.31 772.194C195.993 771.578 195.834 770.883 195.834 770.108ZM202.148 770.136C202.148 769.604 202.036 769.142 201.812 768.75C201.598 768.358 201.313 768.059 200.958 767.854C200.604 767.649 200.221 767.546 199.81 767.546C199.4 767.546 199.017 767.649 198.662 767.854C198.308 768.05 198.018 768.344 197.794 768.736C197.58 769.119 197.472 769.576 197.472 770.108C197.472 770.64 197.58 771.107 197.794 771.508C198.018 771.909 198.308 772.217 198.662 772.432C199.026 772.637 199.409 772.74 199.81 772.74C200.221 772.74 200.604 772.637 200.958 772.432C201.313 772.227 201.598 771.928 201.812 771.536C202.036 771.135 202.148 770.668 202.148 770.136ZM205.323 770.108C205.323 769.333 205.481 768.647 205.799 768.05C206.125 767.453 206.564 766.991 207.115 766.664C207.675 766.328 208.291 766.16 208.963 766.16C209.569 766.16 210.097 766.281 210.545 766.524C211.002 766.757 211.366 767.051 211.637 767.406V766.286H213.247V774H211.637V772.852C211.366 773.216 210.997 773.519 210.531 773.762C210.064 774.005 209.532 774.126 208.935 774.126C208.272 774.126 207.665 773.958 207.115 773.622C206.564 773.277 206.125 772.801 205.799 772.194C205.481 771.578 205.323 770.883 205.323 770.108ZM211.637 770.136C211.637 769.604 211.525 769.142 211.301 768.75C211.086 768.358 210.801 768.059 210.447 767.854C210.092 767.649 209.709 767.546 209.299 767.546C208.888 767.546 208.505 767.649 208.151 767.854C207.796 768.05 207.507 768.344 207.283 768.736C207.068 769.119 206.961 769.576 206.961 770.108C206.961 770.64 207.068 771.107 207.283 771.508C207.507 771.909 207.796 772.217 208.151 772.432C208.515 772.637 208.897 772.74 209.299 772.74C209.709 772.74 210.092 772.637 210.447 772.432C210.801 772.227 211.086 771.928 211.301 771.536C211.525 771.135 211.637 770.668 211.637 770.136ZM218.143 774.126C217.536 774.126 216.99 774.019 216.505 773.804C216.029 773.58 215.651 773.281 215.371 772.908C215.091 772.525 214.942 772.101 214.923 771.634H216.575C216.603 771.961 216.757 772.236 217.037 772.46C217.326 772.675 217.686 772.782 218.115 772.782C218.563 772.782 218.908 772.698 219.151 772.53C219.403 772.353 219.529 772.129 219.529 771.858C219.529 771.569 219.389 771.354 219.109 771.214C218.838 771.074 218.404 770.92 217.807 770.752C217.228 770.593 216.757 770.439 216.393 770.29C216.029 770.141 215.712 769.912 215.441 769.604C215.18 769.296 215.049 768.89 215.049 768.386C215.049 767.975 215.17 767.602 215.413 767.266C215.656 766.921 216.001 766.65 216.449 766.454C216.906 766.258 217.429 766.16 218.017 766.16C218.894 766.16 219.599 766.384 220.131 766.832C220.672 767.271 220.962 767.873 220.999 768.638H219.403C219.375 768.293 219.235 768.017 218.983 767.812C218.731 767.607 218.39 767.504 217.961 767.504C217.541 767.504 217.219 767.583 216.995 767.742C216.771 767.901 216.659 768.111 216.659 768.372C216.659 768.577 216.734 768.75 216.883 768.89C217.032 769.03 217.214 769.142 217.429 769.226C217.644 769.301 217.961 769.399 218.381 769.52C218.941 769.669 219.398 769.823 219.753 769.982C220.117 770.131 220.43 770.355 220.691 770.654C220.952 770.953 221.088 771.349 221.097 771.844C221.097 772.283 220.976 772.675 220.733 773.02C220.49 773.365 220.145 773.636 219.697 773.832C219.258 774.028 218.74 774.126 218.143 774.126ZM224.683 767.588V771.858C224.683 772.147 224.749 772.357 224.879 772.488C225.019 772.609 225.253 772.67 225.579 772.67H226.559V774H225.299C224.581 774 224.03 773.832 223.647 773.496C223.265 773.16 223.073 772.614 223.073 771.858V767.588H222.163V766.286H223.073V764.368H224.683V766.286H226.559V767.588H224.683ZM229.626 767.406C229.86 767.014 230.168 766.711 230.55 766.496C230.942 766.272 231.404 766.16 231.936 766.16V767.812H231.53C230.905 767.812 230.429 767.971 230.102 768.288C229.785 768.605 229.626 769.156 229.626 769.94V774H228.03V766.286H229.626V767.406ZM232.872 770.108C232.872 769.333 233.03 768.647 233.348 768.05C233.674 767.453 234.113 766.991 234.664 766.664C235.224 766.328 235.84 766.16 236.512 766.16C237.118 766.16 237.646 766.281 238.094 766.524C238.551 766.757 238.915 767.051 239.186 767.406V766.286H240.796V774H239.186V772.852C238.915 773.216 238.546 773.519 238.08 773.762C237.613 774.005 237.081 774.126 236.484 774.126C235.821 774.126 235.214 773.958 234.664 773.622C234.113 773.277 233.674 772.801 233.348 772.194C233.03 771.578 232.872 770.883 232.872 770.108ZM239.186 770.136C239.186 769.604 239.074 769.142 238.85 768.75C238.635 768.358 238.35 768.059 237.996 767.854C237.641 767.649 237.258 767.546 236.848 767.546C236.437 767.546 236.054 767.649 235.7 767.854C235.345 768.05 235.056 768.344 234.832 768.736C234.617 769.119 234.51 769.576 234.51 770.108C234.51 770.64 234.617 771.107 234.832 771.508C235.056 771.909 235.345 772.217 235.7 772.432C236.064 772.637 236.446 772.74 236.848 772.74C237.258 772.74 237.641 772.637 237.996 772.432C238.35 772.227 238.635 771.928 238.85 771.536C239.074 771.135 239.186 770.668 239.186 770.136ZM244.488 767.406C244.721 767.014 245.029 766.711 245.412 766.496C245.804 766.272 246.266 766.16 246.798 766.16V767.812H246.392C245.766 767.812 245.29 767.971 244.964 768.288C244.646 768.605 244.488 769.156 244.488 769.94V774H242.892V766.286H244.488V767.406Z" fill="#FF872C"/>
<path d="M151 758V780" stroke="#FF872C" stroke-width="1.5" stroke-linecap="round" stroke-linejoin="round"/>
<path d="M156 762H148.5C147.572 762 146.682 762.369 146.025 763.025C145.369 763.682 145 764.572 145 765.5C145 766.428 145.369 767.319 146.025 767.975C146.682 768.631 147.572 769 148.5 769H153.5C154.428 769 155.318 769.369 155.975 770.025C156.631 770.682 157 771.572 157 772.5C157 773.428 156.631 774.319 155.975 774.975C155.318 775.631 154.428 776 153.5 776H145" stroke="#FF872C" stroke-width="1.5" stroke-linecap="round" stroke-linejoin="round"/>
</g>
<path opacity="0.6" d="M300.104 774L297.864 770.108H296.646V774H295.05V764.27H298.41C299.157 764.27 299.787 764.401 300.3 764.662C300.823 764.923 301.21 765.273 301.462 765.712C301.723 766.151 301.854 766.641 301.854 767.182C301.854 767.817 301.667 768.395 301.294 768.918C300.93 769.431 300.365 769.781 299.6 769.968L302.008 774H300.104ZM296.646 768.834H298.41C299.007 768.834 299.455 768.685 299.754 768.386C300.062 768.087 300.216 767.686 300.216 767.182C300.216 766.678 300.067 766.286 299.768 766.006C299.469 765.717 299.017 765.572 298.41 765.572H296.646V768.834ZM310.966 769.954C310.966 770.243 310.947 770.505 310.91 770.738H305.016C305.062 771.354 305.291 771.849 305.702 772.222C306.112 772.595 306.616 772.782 307.214 772.782C308.072 772.782 308.679 772.423 309.034 771.704H310.756C310.522 772.413 310.098 772.997 309.482 773.454C308.875 773.902 308.119 774.126 307.214 774.126C306.476 774.126 305.814 773.963 305.226 773.636C304.647 773.3 304.19 772.833 303.854 772.236C303.527 771.629 303.364 770.929 303.364 770.136C303.364 769.343 303.522 768.647 303.84 768.05C304.166 767.443 304.619 766.977 305.198 766.65C305.786 766.323 306.458 766.16 307.214 766.16C307.942 766.16 308.59 766.319 309.16 766.636C309.729 766.953 310.172 767.401 310.49 767.98C310.807 768.549 310.966 769.207 310.966 769.954ZM309.3 769.45C309.29 768.862 309.08 768.391 308.67 768.036C308.259 767.681 307.75 767.504 307.144 767.504C306.593 767.504 306.122 767.681 305.73 768.036C305.338 768.381 305.104 768.853 305.03 769.45H309.3ZM315.336 774.126C314.73 774.126 314.184 774.019 313.698 773.804C313.222 773.58 312.844 773.281 312.564 772.908C312.284 772.525 312.135 772.101 312.116 771.634H313.768C313.796 771.961 313.95 772.236 314.23 772.46C314.52 772.675 314.879 772.782 315.308 772.782C315.756 772.782 316.102 772.698 316.344 772.53C316.596 772.353 316.722 772.129 316.722 771.858C316.722 771.569 316.582 771.354 316.302 771.214C316.032 771.074 315.598 770.92 315 770.752C314.422 770.593 313.95 770.439 313.586 770.29C313.222 770.141 312.905 769.912 312.634 769.604C312.373 769.296 312.242 768.89 312.242 768.386C312.242 767.975 312.364 767.602 312.606 767.266C312.849 766.921 313.194 766.65 313.642 766.454C314.1 766.258 314.622 766.16 315.21 766.16C316.088 766.16 316.792 766.384 317.324 766.832C317.866 767.271 318.155 767.873 318.192 768.638H316.596C316.568 768.293 316.428 768.017 316.176 767.812C315.924 767.607 315.584 767.504 315.154 767.504C314.734 767.504 314.412 767.583 314.188 767.742C313.964 767.901 313.852 768.111 313.852 768.372C313.852 768.577 313.927 768.75 314.076 768.89C314.226 769.03 314.408 769.142 314.622 769.226C314.837 769.301 315.154 769.399 315.574 769.52C316.134 769.669 316.592 769.823 316.946 769.982C317.31 770.131 317.623 770.355 317.884 770.654C318.146 770.953 318.281 771.349 318.29 771.844C318.29 772.283 318.169 772.675 317.926 773.02C317.684 773.365 317.338 773.636 316.89 773.832C316.452 774.028 315.934 774.126 315.336 774.126ZM327.001 766.286V774H325.405V773.09C325.153 773.407 324.822 773.659 324.411 773.846C324.01 774.023 323.58 774.112 323.123 774.112C322.516 774.112 321.97 773.986 321.485 773.734C321.009 773.482 320.631 773.109 320.351 772.614C320.08 772.119 319.945 771.522 319.945 770.822V766.286H321.527V770.584C321.527 771.275 321.7 771.807 322.045 772.18C322.39 772.544 322.862 772.726 323.459 772.726C324.056 772.726 324.528 772.544 324.873 772.18C325.228 771.807 325.405 771.275 325.405 770.584V766.286H327.001ZM338.445 766.16C339.051 766.16 339.593 766.286 340.069 766.538C340.554 766.79 340.932 767.163 341.203 767.658C341.483 768.153 341.623 768.75 341.623 769.45V774H340.041V769.688C340.041 768.997 339.868 768.47 339.523 768.106C339.177 767.733 338.706 767.546 338.109 767.546C337.511 767.546 337.035 767.733 336.681 768.106C336.335 768.47 336.163 768.997 336.163 769.688V774H334.581V769.688C334.581 768.997 334.408 768.47 334.063 768.106C333.717 767.733 333.246 767.546 332.649 767.546C332.051 767.546 331.575 767.733 331.221 768.106C330.875 768.47 330.703 768.997 330.703 769.688V774H329.107V766.286H330.703V767.168C330.964 766.851 331.295 766.603 331.697 766.426C332.098 766.249 332.527 766.16 332.985 766.16C333.601 766.16 334.151 766.291 334.637 766.552C335.122 766.813 335.495 767.191 335.757 767.686C335.99 767.219 336.354 766.851 336.849 766.58C337.343 766.3 337.875 766.16 338.445 766.16ZM347 774.126C346.272 774.126 345.614 773.963 345.026 773.636C344.438 773.3 343.976 772.833 343.64 772.236C343.304 771.629 343.136 770.929 343.136 770.136C343.136 769.352 343.308 768.657 343.654 768.05C343.999 767.443 344.47 766.977 345.068 766.65C345.665 766.323 346.332 766.16 347.07 766.16C347.807 766.16 348.474 766.323 349.072 766.65C349.669 766.977 350.14 767.443 350.486 768.05C350.831 768.657 351.004 769.352 351.004 770.136C351.004 770.92 350.826 771.615 350.472 772.222C350.117 772.829 349.632 773.3 349.016 773.636C348.409 773.963 347.737 774.126 347 774.126ZM347 772.74C347.41 772.74 347.793 772.642 348.148 772.446C348.512 772.25 348.806 771.956 349.03 771.564C349.254 771.172 349.366 770.696 349.366 770.136C349.366 769.576 349.258 769.105 349.044 768.722C348.829 768.33 348.544 768.036 348.19 767.84C347.835 767.644 347.452 767.546 347.042 767.546C346.631 767.546 346.248 767.644 345.894 767.84C345.548 768.036 345.273 768.33 345.068 768.722C344.862 769.105 344.76 769.576 344.76 770.136C344.76 770.967 344.97 771.611 345.39 772.068C345.819 772.516 346.356 772.74 347 772.74Z" fill="#363F5F"/>
<path d="M285.21 772.89C283.46 777.029 279.164 779.492 274.708 778.912C270.252 778.331 266.73 774.849 266.099 770.4C265.467 765.951 267.881 761.627 272 759.83" stroke="#868C9F" stroke-width="2" stroke-linecap="round" stroke-linejoin="round"/>
<path fill-rule="evenodd" clip-rule="evenodd" d="M286 769C286 766.348 284.946 763.804 283.071 761.929C281.196 760.054 278.652 759 276 759V769H286Z" stroke="#868C9F" stroke-width="2" stroke-linecap="round" stroke-linejoin="round"/>
<path d="M62.646 772.712H65.936V774H61.05V764.27H62.646V772.712ZM68.0827 765.264C67.7934 765.264 67.5507 765.166 67.3547 764.97C67.1587 764.774 67.0607 764.531 67.0607 764.242C67.0607 763.953 67.1587 763.71 67.3547 763.514C67.5507 763.318 67.7934 763.22 68.0827 763.22C68.3627 763.22 68.6007 763.318 68.7967 763.514C68.9927 763.71 69.0907 763.953 69.0907 764.242C69.0907 764.531 68.9927 764.774 68.7967 764.97C68.6007 765.166 68.3627 765.264 68.0827 765.264ZM68.8667 766.286V774H67.2707V766.286H68.8667ZM73.7621 774.126C73.1554 774.126 72.6094 774.019 72.1241 773.804C71.6481 773.58 71.2701 773.281 70.9901 772.908C70.7101 772.525 70.5608 772.101 70.5421 771.634H72.1941C72.2221 771.961 72.3761 772.236 72.6561 772.46C72.9454 772.675 73.3048 772.782 73.7341 772.782C74.1821 772.782 74.5274 772.698 74.7701 772.53C75.0221 772.353 75.1481 772.129 75.1481 771.858C75.1481 771.569 75.0081 771.354 74.7281 771.214C74.4574 771.074 74.0234 770.92 73.4261 770.752C72.8474 770.593 72.3761 770.439 72.0121 770.29C71.6481 770.141 71.3308 769.912 71.0601 769.604C70.7988 769.296 70.6681 768.89 70.6681 768.386C70.6681 767.975 70.7894 767.602 71.0321 767.266C71.2748 766.921 71.6201 766.65 72.0681 766.454C72.5254 766.258 73.0481 766.16 73.6361 766.16C74.5134 766.16 75.2181 766.384 75.7501 766.832C76.2914 767.271 76.5808 767.873 76.6181 768.638H75.0221C74.9941 768.293 74.8541 768.017 74.6021 767.812C74.3501 767.607 74.0094 767.504 73.5801 767.504C73.1601 767.504 72.8381 767.583 72.6141 767.742C72.3901 767.901 72.2781 768.111 72.2781 768.372C72.2781 768.577 72.3528 768.75 72.5021 768.89C72.6514 769.03 72.8334 769.142 73.0481 769.226C73.2628 769.301 73.5801 769.399 74.0001 769.52C74.5601 769.669 75.0174 769.823 75.3721 769.982C75.7361 770.131 76.0488 770.355 76.3101 770.654C76.5714 770.953 76.7068 771.349 76.7161 771.844C76.7161 772.283 76.5948 772.675 76.3521 773.02C76.1094 773.365 75.7641 773.636 75.3161 773.832C74.8774 774.028 74.3594 774.126 73.7621 774.126ZM80.3026 767.588V771.858C80.3026 772.147 80.368 772.357 80.4986 772.488C80.6386 772.609 80.872 772.67 81.1986 772.67H82.1786V774H80.9186C80.2 774 79.6493 773.832 79.2666 773.496C78.884 773.16 78.6926 772.614 78.6926 771.858V767.588H77.7826V766.286H78.6926V764.368H80.3026V766.286H82.1786V767.588H80.3026ZM83.1176 770.108C83.1176 769.333 83.2763 768.647 83.5936 768.05C83.9203 767.453 84.3589 766.991 84.9096 766.664C85.4696 766.328 86.0856 766.16 86.7576 766.16C87.3643 766.16 87.8916 766.281 88.3396 766.524C88.7969 766.757 89.1609 767.051 89.4316 767.406V766.286H91.0416V774H89.4316V772.852C89.1609 773.216 88.7923 773.519 88.3256 773.762C87.8589 774.005 87.3269 774.126 86.7296 774.126C86.0669 774.126 85.4603 773.958 84.9096 773.622C84.3589 773.277 83.9203 772.801 83.5936 772.194C83.2763 771.578 83.1176 770.883 83.1176 770.108ZM89.4316 770.136C89.4316 769.604 89.3196 769.142 89.0956 768.75C88.8809 768.358 88.5963 768.059 88.2416 767.854C87.8869 767.649 87.5043 767.546 87.0936 767.546C86.6829 767.546 86.3003 767.649 85.9456 767.854C85.5909 768.05 85.3016 768.344 85.0776 768.736C84.8629 769.119 84.7556 769.576 84.7556 770.108C84.7556 770.64 84.8629 771.107 85.0776 771.508C85.3016 771.909 85.5909 772.217 85.9456 772.432C86.3096 772.637 86.6923 772.74 87.0936 772.74C87.5043 772.74 87.8869 772.637 88.2416 772.432C88.5963 772.227 88.8809 771.928 89.0956 771.536C89.3196 771.135 89.4316 770.668 89.4316 770.136ZM96.2459 766.16C96.8432 766.16 97.3706 766.281 97.8279 766.524C98.2946 766.757 98.6586 767.051 98.9199 767.406V766.286H100.53V774.126C100.53 774.835 100.381 775.465 100.082 776.016C99.7832 776.576 99.3492 777.015 98.7799 777.332C98.2199 777.649 97.5479 777.808 96.7639 777.808C95.7186 777.808 94.8506 777.561 94.1599 777.066C93.4692 776.581 93.0772 775.918 92.9839 775.078H94.5659C94.6872 775.479 94.9439 775.801 95.3359 776.044C95.7372 776.296 96.2132 776.422 96.7639 776.422C97.4079 776.422 97.9259 776.226 98.3179 775.834C98.7192 775.442 98.9199 774.873 98.9199 774.126V772.838C98.6492 773.202 98.2806 773.51 97.8139 773.762C97.3566 774.005 96.8339 774.126 96.2459 774.126C95.5739 774.126 94.9579 773.958 94.3979 773.622C93.8472 773.277 93.4086 772.801 93.0819 772.194C92.7646 771.578 92.6059 770.883 92.6059 770.108C92.6059 769.333 92.7646 768.647 93.0819 768.05C93.4086 767.453 93.8472 766.991 94.3979 766.664C94.9579 766.328 95.5739 766.16 96.2459 766.16ZM98.9199 770.136C98.9199 769.604 98.8079 769.142 98.5839 768.75C98.3692 768.358 98.0846 768.059 97.7299 767.854C97.3752 767.649 96.9926 767.546 96.5819 767.546C96.1712 767.546 95.7886 767.649 95.4339 767.854C95.0792 768.05 94.7899 768.344 94.5659 768.736C94.3512 769.119 94.2439 769.576 94.2439 770.108C94.2439 770.64 94.3512 771.107 94.5659 771.508C94.7899 771.909 95.0792 772.217 95.4339 772.432C95.7979 772.637 96.1806 772.74 96.5819 772.74C96.9926 772.74 97.3752 772.637 97.7299 772.432C98.0846 772.227 98.3692 771.928 98.5839 771.536C98.8079 771.135 98.9199 770.668 98.9199 770.136ZM109.696 769.954C109.696 770.243 109.678 770.505 109.64 770.738H103.746C103.793 771.354 104.022 771.849 104.432 772.222C104.843 772.595 105.347 772.782 105.944 772.782C106.803 772.782 107.41 772.423 107.764 771.704H109.486C109.253 772.413 108.828 772.997 108.212 773.454C107.606 773.902 106.85 774.126 105.944 774.126C105.207 774.126 104.544 773.963 103.956 773.636C103.378 773.3 102.92 772.833 102.584 772.236C102.258 771.629 102.094 770.929 102.094 770.136C102.094 769.343 102.253 768.647 102.57 768.05C102.897 767.443 103.35 766.977 103.928 766.65C104.516 766.323 105.188 766.16 105.944 766.16C106.672 766.16 107.321 766.319 107.89 766.636C108.46 766.953 108.903 767.401 109.22 767.98C109.538 768.549 109.696 769.207 109.696 769.954ZM108.03 769.45C108.021 768.862 107.811 768.391 107.4 768.036C106.99 767.681 106.481 767.504 105.874 767.504C105.324 767.504 104.852 767.681 104.46 768.036C104.068 768.381 103.835 768.853 103.76 769.45H108.03ZM120.605 766.16C121.211 766.16 121.753 766.286 122.229 766.538C122.714 766.79 123.092 767.163 123.363 767.658C123.643 768.153 123.783 768.75 123.783 769.45V774H122.201V769.688C122.201 768.997 122.028 768.47 121.683 768.106C121.337 767.733 120.866 767.546 120.269 767.546C119.671 767.546 119.195 767.733 118.841 768.106C118.495 768.47 118.323 768.997 118.323 769.688V774H116.741V769.688C116.741 768.997 116.568 768.47 116.223 768.106C115.877 767.733 115.406 767.546 114.809 767.546C114.211 767.546 113.735 767.733 113.381 768.106C113.035 768.47 112.863 768.997 112.863 769.688V774H111.267V766.286H112.863V767.168C113.124 766.851 113.455 766.603 113.857 766.426C114.258 766.249 114.687 766.16 115.145 766.16C115.761 766.16 116.311 766.291 116.797 766.552C117.282 766.813 117.655 767.191 117.917 767.686C118.15 767.219 118.514 766.851 119.009 766.58C119.503 766.3 120.035 766.16 120.605 766.16Z" fill="#969CB3"/>
<path d="M32 763H45" stroke="#969CB3" stroke-width="2" stroke-linecap="round" stroke-linejoin="round"/>
<path d="M32 769H45" stroke="#969CB3" stroke-width="2" stroke-linecap="round" stroke-linejoin="round"/>
<path d="M32 775H45" stroke="#969CB3" stroke-width="2" stroke-linecap="round" stroke-linejoin="round"/>
<path d="M27 763H27.01" stroke="#969CB3" stroke-width="2" stroke-linecap="round" stroke-linejoin="round"/>
<path d="M27 769H27.01" stroke="#969CB3" stroke-width="2" stroke-linecap="round" stroke-linejoin="round"/>
<path d="M27 775H27.01" stroke="#969CB3" stroke-width="2" stroke-linecap="round" stroke-linejoin="round"/>
<path d="M146.981 80.718C146.981 79.494 147.257 78.396 147.809 77.424C148.361 76.44 149.111 75.672 150.059 75.12C151.019 74.568 152.081 74.292 153.245 74.292C154.613 74.292 155.807 74.622 156.827 75.282C157.847 75.942 158.591 76.878 159.059 78.09H157.097C156.749 77.334 156.245 76.752 155.585 76.344C154.937 75.936 154.157 75.732 153.245 75.732C152.369 75.732 151.583 75.936 150.887 76.344C150.191 76.752 149.645 77.334 149.249 78.09C148.853 78.834 148.655 79.71 148.655 80.718C148.655 81.714 148.853 82.59 149.249 83.346C149.645 84.09 150.191 84.666 150.887 85.074C151.583 85.482 152.369 85.686 153.245 85.686C154.157 85.686 154.937 85.488 155.585 85.092C156.245 84.684 156.749 84.102 157.097 83.346H159.059C158.591 84.546 157.847 85.476 156.827 86.136C155.807 86.784 154.613 87.108 153.245 87.108C152.081 87.108 151.019 86.838 150.059 86.298C149.111 85.746 148.361 84.984 147.809 84.012C147.257 83.04 146.981 81.942 146.981 80.718ZM160.885 82.032C160.885 81.024 161.089 80.142 161.497 79.386C161.905 78.618 162.463 78.024 163.171 77.604C163.891 77.184 164.689 76.974 165.565 76.974C166.429 76.974 167.179 77.16 167.815 77.532C168.451 77.904 168.925 78.372 169.237 78.936V77.136H170.893V87H169.237V85.164C168.913 85.74 168.427 86.22 167.779 86.604C167.143 86.976 166.399 87.162 165.547 87.162C164.671 87.162 163.879 86.946 163.171 86.514C162.463 86.082 161.905 85.476 161.497 84.696C161.089 83.916 160.885 83.028 160.885 82.032ZM169.237 82.05C169.237 81.306 169.087 80.658 168.787 80.106C168.487 79.554 168.079 79.134 167.563 78.846C167.059 78.546 166.501 78.396 165.889 78.396C165.277 78.396 164.719 78.54 164.215 78.828C163.711 79.116 163.309 79.536 163.009 80.088C162.709 80.64 162.559 81.288 162.559 82.032C162.559 82.788 162.709 83.448 163.009 84.012C163.309 84.564 163.711 84.99 164.215 85.29C164.719 85.578 165.277 85.722 165.889 85.722C166.501 85.722 167.059 85.578 167.563 85.29C168.079 84.99 168.487 84.564 168.787 84.012C169.087 83.448 169.237 82.794 169.237 82.05ZM173.049 82.032C173.049 81.024 173.253 80.142 173.661 79.386C174.069 78.618 174.627 78.024 175.335 77.604C176.055 77.184 176.859 76.974 177.747 76.974C178.515 76.974 179.229 77.154 179.889 77.514C180.549 77.862 181.053 78.324 181.401 78.9V73.68H183.057V87H181.401V85.146C181.077 85.734 180.597 86.22 179.961 86.604C179.325 86.976 178.581 87.162 177.729 87.162C176.853 87.162 176.055 86.946 175.335 86.514C174.627 86.082 174.069 85.476 173.661 84.696C173.253 83.916 173.049 83.028 173.049 82.032ZM181.401 82.05C181.401 81.306 181.251 80.658 180.951 80.106C180.651 79.554 180.243 79.134 179.727 78.846C179.223 78.546 178.665 78.396 178.053 78.396C177.441 78.396 176.883 78.54 176.379 78.828C175.875 79.116 175.473 79.536 175.173 80.088C174.873 80.64 174.723 81.288 174.723 82.032C174.723 82.788 174.873 83.448 175.173 84.012C175.473 84.564 175.875 84.99 176.379 85.29C176.883 85.578 177.441 85.722 178.053 85.722C178.665 85.722 179.223 85.578 179.727 85.29C180.243 84.99 180.651 84.564 180.951 84.012C181.251 83.448 181.401 82.794 181.401 82.05ZM185.213 82.032C185.213 81.024 185.417 80.142 185.825 79.386C186.233 78.618 186.791 78.024 187.499 77.604C188.219 77.184 189.017 76.974 189.893 76.974C190.757 76.974 191.507 77.16 192.143 77.532C192.779 77.904 193.253 78.372 193.565 78.936V77.136H195.221V87H193.565V85.164C193.241 85.74 192.755 86.22 192.107 86.604C191.471 86.976 190.727 87.162 189.875 87.162C188.999 87.162 188.207 86.946 187.499 86.514C186.791 86.082 186.233 85.476 185.825 84.696C185.417 83.916 185.213 83.028 185.213 82.032ZM193.565 82.05C193.565 81.306 193.415 80.658 193.115 80.106C192.815 79.554 192.407 79.134 191.891 78.846C191.387 78.546 190.829 78.396 190.217 78.396C189.605 78.396 189.047 78.54 188.543 78.828C188.039 79.116 187.637 79.536 187.337 80.088C187.037 80.64 186.887 81.288 186.887 82.032C186.887 82.788 187.037 83.448 187.337 84.012C187.637 84.564 188.039 84.99 188.543 85.29C189.047 85.578 189.605 85.722 190.217 85.722C190.829 85.722 191.387 85.578 191.891 85.29C192.407 84.99 192.815 84.564 193.115 84.012C193.415 83.448 193.565 82.794 193.565 82.05ZM201.482 87.162C200.726 87.162 200.048 87.036 199.448 86.784C198.848 86.52 198.374 86.16 198.026 85.704C197.678 85.236 197.486 84.702 197.45 84.102H199.142C199.19 84.594 199.418 84.996 199.826 85.308C200.246 85.62 200.792 85.776 201.464 85.776C202.088 85.776 202.58 85.638 202.94 85.362C203.3 85.086 203.48 84.738 203.48 84.318C203.48 83.886 203.288 83.568 202.904 83.364C202.52 83.148 201.926 82.938 201.122 82.734C200.39 82.542 199.79 82.35 199.322 82.158C198.866 81.954 198.47 81.66 198.134 81.276C197.81 80.88 197.648 80.364 197.648 79.728C197.648 79.224 197.798 78.762 198.098 78.342C198.398 77.922 198.824 77.592 199.376 77.352C199.928 77.1 200.558 76.974 201.266 76.974C202.358 76.974 203.24 77.25 203.912 77.802C204.584 78.354 204.944 79.11 204.992 80.07H203.354C203.318 79.554 203.108 79.14 202.724 78.828C202.352 78.516 201.848 78.36 201.212 78.36C200.624 78.36 200.156 78.486 199.808 78.738C199.46 78.99 199.286 79.32 199.286 79.728C199.286 80.052 199.388 80.322 199.592 80.538C199.808 80.742 200.072 80.91 200.384 81.042C200.708 81.162 201.152 81.3 201.716 81.456C202.424 81.648 203 81.84 203.444 82.032C203.888 82.212 204.266 82.488 204.578 82.86C204.902 83.232 205.07 83.718 205.082 84.318C205.082 84.858 204.932 85.344 204.632 85.776C204.332 86.208 203.906 86.55 203.354 86.802C202.814 87.042 202.19 87.162 201.482 87.162ZM209.392 78.486V84.3C209.392 84.78 209.494 85.122 209.698 85.326C209.902 85.518 210.256 85.614 210.76 85.614H211.966V87H210.49C209.578 87 208.894 86.79 208.438 86.37C207.982 85.95 207.754 85.26 207.754 84.3V78.486H206.476V77.136H207.754V74.652H209.392V77.136H211.966V78.486H209.392ZM215.588 78.738C215.876 78.174 216.284 77.736 216.812 77.424C217.352 77.112 218.006 76.956 218.774 76.956V78.648H218.342C216.506 78.648 215.588 79.644 215.588 81.636V87H213.95V77.136H215.588V78.738ZM224.967 87.162C224.043 87.162 223.203 86.952 222.447 86.532C221.703 86.112 221.115 85.518 220.683 84.75C220.263 83.97 220.053 83.07 220.053 82.05C220.053 81.042 220.269 80.154 220.701 79.386C221.145 78.606 221.745 78.012 222.501 77.604C223.257 77.184 224.103 76.974 225.039 76.974C225.975 76.974 226.821 77.184 227.577 77.604C228.333 78.012 228.927 78.6 229.359 79.368C229.803 80.136 230.025 81.03 230.025 82.05C230.025 83.07 229.797 83.97 229.341 84.75C228.897 85.518 228.291 86.112 227.523 86.532C226.755 86.952 225.903 87.162 224.967 87.162ZM224.967 85.722C225.555 85.722 226.107 85.584 226.623 85.308C227.139 85.032 227.553 84.618 227.865 84.066C228.189 83.514 228.351 82.842 228.351 82.05C228.351 81.258 228.195 80.586 227.883 80.034C227.571 79.482 227.163 79.074 226.659 78.81C226.155 78.534 225.609 78.396 225.021 78.396C224.421 78.396 223.869 78.534 223.365 78.81C222.873 79.074 222.477 79.482 222.177 80.034C221.877 80.586 221.727 81.258 221.727 82.05C221.727 82.854 221.871 83.532 222.159 84.084C222.459 84.636 222.855 85.05 223.347 85.326C223.839 85.59 224.379 85.722 224.967 85.722Z" fill="white"/>
</svg>
